<?xml version="1.0" encoding="utf-8"?>
<svg width="150pt" height="150pt" version="1.1" viewBox="65.116 21.162 571.395 522.56" xmlns="http://www.w3.org/2000/svg" xmlns:xlink="http://www.w3.org/1999/xlink">
  <rect x="69.369" y="25.415" width="562.663" height="514.053" style="stroke: rgb(0, 0, 0); stroke-width: 8px; fill: rgb(255, 255, 255);" rx="19.444" ry="19.444"/>
  <g>
    <path d="m388.64 111.44c0-21.281-17.359-38.641-38.641-38.641s-38.641 17.359-38.641 38.641c0 16.801 10.641 30.801 25.199 35.84v264.88c-14.559 5.6016-25.199 19.602-25.199 35.84 0 21.281 17.359 38.641 38.641 38.641s38.641-17.359 38.641-38.641c0-16.801-10.641-30.801-25.199-35.84v-264.32c14.559-5.6016 25.199-19.602 25.199-36.398z"/>
    <path d="m229.04 147.84c14.559-5.6016 25.199-19.602 25.199-35.84 0-21.281-17.359-38.641-38.641-38.641s-38.641 17.359-38.641 38.641c0 16.801 10.641 30.801 25.199 35.84v80.641h66.078v38.078h-109.75c-5.6016-14.559-19.602-25.199-35.84-25.199-21.281 0-38.641 17.359-38.641 38.641s17.359 38.641 38.641 38.641c16.801 0 30.801-10.641 35.84-25.199h109.76v38.078h-66.082v80.641c-14.559 5.6016-25.199 19.602-25.199 35.84 0 21.281 17.359 38.641 38.641 38.641s38.641-17.359 38.641-38.641c0-16.801-10.641-30.801-25.199-35.84l-0.003907-53.762h66.078l0.003906-156.8h-66.082z"/>
    <path d="m577.36 241.36c-16.801 0-30.801 10.641-35.84 25.199h-109.76v-38.078h66.078v-80.641c14.559-5.6016 25.199-19.602 25.199-35.84 0-21.281-17.359-38.641-38.641-38.641s-38.641 17.359-38.641 38.641c0 16.801 10.641 30.801 25.199 35.84l0.003907 53.762h-66.082v156.8h66.078v54.32c-14.559 5.6016-25.199 19.602-25.199 35.84 0 21.281 17.359 38.641 38.641 38.641s38.641-17.359 38.641-38.641c0-16.801-10.641-30.801-25.199-35.84v-81.203h-66.078v-38.078h109.76c5.6016 14.559 19.602 25.199 35.84 25.199 21.281 0 38.641-17.359 38.641-38.641-0.003906-21.281-17.363-38.641-38.645-38.641z"/>
    <use transform="matrix(1, 0, 0, 1, 0, 0)" xlink:href="#h"/>
  </g>
</svg>