<?xml version="1.0" encoding="utf-8"?>
<svg width="700pt" height="700pt" version="1.1" viewBox="65.116 21.162 571.395 522.56" xmlns="http://www.w3.org/2000/svg" xmlns:xlink="http://www.w3.org/1999/xlink">
  <defs>
    <symbol id="h" overflow="visible"/>
    <symbol id="c" overflow="visible"/>
    <symbol id="a" overflow="visible"/>
    <symbol id="l" overflow="visible"/>
    <symbol id="b" overflow="visible"/>
    <symbol id="e" overflow="visible"/>
    <symbol id="k" overflow="visible"/>
    <symbol id="j" overflow="visible"/>
    <symbol id="i" overflow="visible"/>
    <symbol id="u" overflow="visible"/>
    <symbol id="g" overflow="visible"/>
    <symbol id="d" overflow="visible"/>
    <symbol id="t" overflow="visible"/>
    <symbol id="f" overflow="visible"/>
    <symbol id="s" overflow="visible"/>
    <symbol id="r" overflow="visible"/>
    <symbol id="q" overflow="visible"/>
    <symbol id="p" overflow="visible"/>
    <symbol id="o" overflow="visible"/>
    <symbol id="n" overflow="visible"/>
    <symbol id="m" overflow="visible"/>
  </defs>
  <g>
    <path d="m388.64 111.44c0-21.281-17.359-38.641-38.641-38.641s-38.641 17.359-38.641 38.641c0 16.801 10.641 30.801 25.199 35.84v264.88c-14.559 5.6016-25.199 19.602-25.199 35.84 0 21.281 17.359 38.641 38.641 38.641s38.641-17.359 38.641-38.641c0-16.801-10.641-30.801-25.199-35.84v-264.32c14.559-5.6016 25.199-19.602 25.199-36.398z"/>
    <path d="m229.04 147.84c14.559-5.6016 25.199-19.602 25.199-35.84 0-21.281-17.359-38.641-38.641-38.641s-38.641 17.359-38.641 38.641c0 16.801 10.641 30.801 25.199 35.84v80.641h66.078v38.078h-109.75c-5.6016-14.559-19.602-25.199-35.84-25.199-21.281 0-38.641 17.359-38.641 38.641s17.359 38.641 38.641 38.641c16.801 0 30.801-10.641 35.84-25.199h109.76v38.078h-66.082v80.641c-14.559 5.6016-25.199 19.602-25.199 35.84 0 21.281 17.359 38.641 38.641 38.641s38.641-17.359 38.641-38.641c0-16.801-10.641-30.801-25.199-35.84l-0.003907-53.762h66.078l0.003906-156.8h-66.082z"/>
    <path d="m577.36 241.36c-16.801 0-30.801 10.641-35.84 25.199h-109.76v-38.078h66.078v-80.641c14.559-5.6016 25.199-19.602 25.199-35.84 0-21.281-17.359-38.641-38.641-38.641s-38.641 17.359-38.641 38.641c0 16.801 10.641 30.801 25.199 35.84l0.003907 53.762h-66.082v156.8h66.078v54.32c-14.559 5.6016-25.199 19.602-25.199 35.84 0 21.281 17.359 38.641 38.641 38.641s38.641-17.359 38.641-38.641c0-16.801-10.641-30.801-25.199-35.84v-81.203h-66.078v-38.078h109.76c5.6016 14.559 19.602 25.199 35.84 25.199 21.281 0 38.641-17.359 38.641-38.641-0.003906-21.281-17.363-38.641-38.645-38.641z"/>
    <use xlink:href="#h"/>
    <use transform="matrix(1, 0, 0, 1, 90.55078125, 644)" xlink:href="#c"/>
    <use transform="matrix(1, 0, 0, 1, 104.359375, 644)" xlink:href="#a"/>
    <use transform="matrix(1, 0, 0, 1, 123.34765625, 644)" xlink:href="#l"/>
    <use transform="matrix(1, 0, 0, 1, 142.2421875, 644)" xlink:href="#b"/>
    <use transform="matrix(1, 0, 0, 1, 155.62890625, 644)" xlink:href="#a"/>
    <use transform="matrix(1, 0, 0, 1, 174.6171875, 644)" xlink:href="#e"/>
    <use transform="matrix(1, 0, 0, 1, 204.41015625, 644)" xlink:href="#k"/>
    <use transform="matrix(1, 0, 0, 1, 224.453125, 644)" xlink:href="#j"/>
    <use transform="matrix(1, 0, 0, 1, 252.453125, 644)" xlink:href="#i"/>
    <use transform="matrix(1, 0, 0, 1, 274.12109375, 644)" xlink:href="#e"/>
    <use transform="matrix(1, 0, 0, 1, 294.1640625, 644)" xlink:href="#c"/>
    <use transform="matrix(1, 0, 0, 1, 307.97265625, 644)" xlink:href="#u"/>
    <use transform="matrix(1, 0, 0, 1, 317.5703125, 644)" xlink:href="#a"/>
    <use transform="matrix(1, 0, 0, 1, 336.5625, 644)" xlink:href="#g"/>
    <use transform="matrix(1, 0, 0, 1, 366.2421875, 644)" xlink:href="#h"/>
    <use transform="matrix(1, 0, 0, 1, 386.7890625, 644)" xlink:href="#d"/>
    <use transform="matrix(1, 0, 0, 1, 406.02734375, 644)" xlink:href="#t"/>
    <use transform="matrix(1, 0, 0, 1, 426.0703125, 644)" xlink:href="#f"/>
    <use transform="matrix(1, 0, 0, 1, 446.00390625, 644)" xlink:href="#a"/>
    <use transform="matrix(1, 0, 0, 1, 464.9921875, 644)" xlink:href="#b"/>
    <use transform="matrix(1, 0, 0, 1, 70, 672)" xlink:href="#s"/>
    <use transform="matrix(1, 0, 0, 1, 82.18359375, 672)" xlink:href="#c"/>
    <use transform="matrix(1, 0, 0, 1, 95.9921875, 672)" xlink:href="#d"/>
    <use transform="matrix(1, 0, 0, 1, 115.2265625, 672)" xlink:href="#r"/>
    <use transform="matrix(1, 0, 0, 1, 154.15234375, 672)" xlink:href="#b"/>
    <use transform="matrix(1, 0, 0, 1, 167.53515625, 672)" xlink:href="#q"/>
    <use transform="matrix(1, 0, 0, 1, 187.46875, 672)" xlink:href="#a"/>
    <use transform="matrix(1, 0, 0, 1, 216.20703125, 672)" xlink:href="#p"/>
    <use transform="matrix(1, 0, 0, 1, 239.640625, 672)" xlink:href="#d"/>
    <use transform="matrix(1, 0, 0, 1, 258.87890625, 672)" xlink:href="#f"/>
    <use transform="matrix(1, 0, 0, 1, 278.8125, 672)" xlink:href="#g"/>
    <use transform="matrix(1, 0, 0, 1, 308.4921875, 672)" xlink:href="#o"/>
    <use transform="matrix(1, 0, 0, 1, 329.015625, 672)" xlink:href="#c"/>
    <use transform="matrix(1, 0, 0, 1, 342.8203125, 672)" xlink:href="#d"/>
    <use transform="matrix(1, 0, 0, 1, 362.05859375, 672)" xlink:href="#n"/>
    <use transform="matrix(1, 0, 0, 1, 371.65625, 672)" xlink:href="#a"/>
    <use transform="matrix(1, 0, 0, 1, 390.648438, 672)" xlink:href="#m"/>
    <use transform="matrix(1, 0, 0, 1, 407.2421875, 672)" xlink:href="#b"/>
  </g>
</svg>